<svg width="41" height="41" viewBox="0 0 41 41" fill="none" xmlns="http://www.w3.org/2000/svg">
<circle cx="20.5" cy="20.5" r="20.5" fill="white"/>
<path fill-rule="evenodd" clip-rule="evenodd" d="M20.5 25.4331C16.818 25.4331 13.9224 22.8471 13.9224 17.2112C13.9224 13.5208 16.5191 10.6337 20.5 10.6337C24.4698 10.6337 27.0775 13.7935 27.0775 17.5401C27.0775 22.933 24.1474 25.4331 20.5 25.4331ZM17.2112 17.2112C17.2112 20.9427 18.5567 22.1444 20.5 22.1444C22.4366 22.1444 23.7887 20.9907 23.7887 17.5401C23.7887 15.4853 22.499 13.9224 20.5 13.9224C18.4178 13.9224 17.2112 15.264 17.2112 17.2112Z" fill="#227D30" fill-opacity="0.6"/>
<path fill-rule="evenodd" clip-rule="evenodd" d="M20.5 38.5882C10.5101 38.5882 2.41174 30.4898 2.41174 20.5C2.41174 10.5101 10.5101 2.41174 20.5 2.41174C30.4898 2.41174 38.5882 10.5101 38.5882 20.5C38.5882 30.4898 30.4898 38.5882 20.5 38.5882ZM32.6676 28.9269C34.327 26.5354 35.2994 23.6313 35.2994 20.5C35.2994 12.3265 28.6735 5.70051 20.5 5.70051C12.3265 5.70051 5.70051 12.3265 5.70051 20.5C5.70051 23.6313 6.67297 26.5354 8.33236 28.9269C10.183 26.4824 14.5319 25.4331 20.5 25.4331C26.4681 25.4331 30.8169 26.4824 32.6676 28.9269ZM30.3082 31.5827C29.8269 29.8522 26.3694 28.7219 20.5 28.7219C14.6305 28.7219 11.173 29.8522 10.6917 31.5827C13.303 33.8954 16.7375 35.2994 20.5 35.2994C24.2624 35.2994 27.697 33.8954 30.3082 31.5827Z" fill="#227D30" fill-opacity="0.6"/>
</svg>
