<svg width="22" height="50" viewBox="0 0 22 50" fill="none" xmlns="http://www.w3.org/2000/svg">
<path d="M9.02701 5.91079C8.97635 6.03369 8.94839 6.1682 8.94839 6.30907C8.94839 6.34974 8.95211 6.38331 8.95417 6.40062L8.95558 6.41206L8.95644 6.41884C8.95673 6.4212 8.95675 6.42155 8.95667 6.42073C8.95663 6.4204 8.95658 6.41988 8.95652 6.41922L9.07843 6.40814L9.45447 6.37396L9.44919 6.30907L9.44846 6.30015L9.41388 5.87561C9.28239 5.88632 9.15339 5.89809 9.02701 5.91079ZM9.02701 5.91079C9.15459 5.60127 9.42613 5.36542 9.75755 5.28732M9.02701 5.91079C7.96424 6.01753 7.08588 6.18939 6.4524 6.34186C6.09786 6.4272 5.8196 6.50656 5.62816 6.56525C5.53243 6.5946 5.45837 6.61879 5.4073 6.636C5.38176 6.6446 5.36196 6.65145 5.34807 6.65633L5.33168 6.66214L5.32685 6.66388L5.32528 6.66445L5.32471 6.66465L5.32447 6.66474C5.32437 6.66478 5.32428 6.66481 5.49584 7.13446L9.99797 5.75948M9.99797 5.75948H10.2576V5.25948H9.99797C9.91529 5.25948 9.8348 5.26911 9.75755 5.28732M9.99797 5.75948L16.6984 9.31073L16.7034 9.31563L16.9379 8.88573C16.9564 8.89587 16.9719 8.90493 16.984 8.91229L16.9997 8.92205L17.0056 8.92588L17.0081 8.92751L17.0092 8.92825L17.0098 8.9286L17.01 8.92877L17.0101 8.92886L17.0102 8.9289L16.7464 9.32468M9.99797 5.75948H9.75755V5.28732M9.75755 5.28732V4.22541M9.75755 4.22541H10.2576V3.72541H9.75755V4.22541ZM9.75755 4.22541H9.0509C8.31238 4.22541 7.71132 3.62435 7.71132 2.88582C7.71132 2.1473 8.31238 1.54624 9.0509 1.54624H9.75755M9.75755 1.54624V2.04624H10.2576V1.54624H9.75755ZM9.75755 1.54624V0.839586C9.75755 0.101063 10.3586 -0.5 11.0971 -0.5C11.8361 -0.5 12.4355 0.10101 12.4387 0.837393L12.4388 0.839586L12.4388 1.54827M12.4388 1.54827H11.9388V2.04827H12.4388V1.54827ZM12.4388 1.54827H13.1454C13.8839 1.54827 14.485 2.14933 14.485 2.88785C14.485 3.62638 13.8839 4.22744 13.1454 4.22744H12.4388M12.4388 4.22744V3.72744H11.9388V4.22744H12.4388ZM12.4388 4.22744V5.29137M12.4388 5.29137C12.3615 5.27317 12.281 5.26354 12.1983 5.26354H11.9388V5.76354H12.1983H12.4388V5.29137ZM12.4388 5.29137C12.7729 5.37011 13.0462 5.6092 13.1724 5.92247M13.1724 5.92247C13.0411 5.90887 12.9108 5.89669 12.7816 5.88585L12.7475 6.29214L12.7458 6.31312L12.7398 6.3841L13.233 6.4663C13.2332 6.46535 13.2334 6.46402 13.2337 6.46234C13.2347 6.45636 13.2366 6.44596 13.2386 6.43235C13.2428 6.4033 13.2479 6.35962 13.2479 6.31312C13.2479 6.17516 13.2211 6.0433 13.1724 5.92247ZM13.1724 5.92247C14.3263 6.04196 15.5607 6.27074 16.8422 6.65558L17.1984 6.76254V7.13446V9.05439M17.1984 9.05439L17.0103 8.92894L16.7464 9.32468M17.1984 9.05439V9.32468H16.7464M17.1984 9.05439L17.5158 9.266L17.0878 9.69722C15.6342 11.1614 15.0866 12.5551 14.893 13.5613C14.7957 14.0672 14.7868 14.4806 14.8011 14.7622C14.8015 14.7702 14.8019 14.7781 14.8023 14.7859L16.7125 9.32468M16.7464 9.32468H16.7125M16.7125 9.32468L16.7329 9.34496L16.4822 9.72121L16.4556 9.76102L16.4557 9.76106L16.4558 9.76115L16.456 9.76131L16.4565 9.76163L16.4574 9.76223L16.4591 9.7633L16.4592 9.76336L16.4616 9.76496L16.4641 9.76648C16.4645 9.76674 16.4627 9.76566 16.459 9.76363L16.3781 9.71952L16.7125 9.32468ZM18.1838 44.3074V44.8016L18.6779 44.8074C19.9536 44.8224 20.995 45.8733 20.9967 47.1534C20.9963 48.4425 19.9386 49.5 18.6494 49.5H2.84729C1.55783 49.5 0.5 48.4422 0.5 47.1527C0.5 45.8635 1.5576 44.8054 2.84932 44.8054H3.04401H3.54401V44.3054V43.9667V43.623L3.22307 43.4999C2.66603 43.2862 2.27246 42.7513 2.27246 42.1314C2.27246 41.3246 2.93483 40.6622 3.74163 40.6622H4.64206H5.04387L5.13034 40.2698L5.97514 36.4363C5.98221 36.4203 5.99088 36.4006 6.00103 36.3772C6.03127 36.3077 6.07472 36.2059 6.1288 36.0742C6.23695 35.8107 6.3877 35.4271 6.56041 34.9418C6.90567 33.9716 7.33958 32.592 7.69608 30.95C8.40737 27.6737 8.81932 23.3119 7.56533 19.0635L7.49134 18.8128L7.24418 18.7308L7.24407 18.7307L7.24387 18.7307L7.24361 18.7306L7.24329 18.7305L7.24094 18.7297L7.22371 18.7236C7.2076 18.7178 7.18269 18.7085 7.15094 18.696C7.08712 18.6707 6.99737 18.6327 6.89664 18.5828C6.68628 18.4787 6.46609 18.3414 6.32134 18.1869C6.18247 18.0386 6.16532 17.9378 6.18737 17.8498C6.21924 17.7226 6.37206 17.4546 6.95439 17.0806L7.35176 16.8255L7.12133 16.4171L7.12109 16.4167L7.12107 16.4166L7.11894 16.4126C7.11614 16.4072 7.11118 16.3974 7.10486 16.3839C7.09202 16.3566 7.07461 16.3162 7.05824 16.2682C7.02245 16.1633 7.006 16.0635 7.01479 15.9913C7.02061 15.9435 7.03272 15.9143 7.08969 15.88C7.17387 15.8292 7.38522 15.7563 7.8446 15.7802L8.26088 15.8019L8.35711 15.3963L7.87061 15.2809C8.35711 15.3963 8.35718 15.396 8.35726 15.3957L8.35742 15.395L8.35779 15.3934L8.35871 15.3894L8.36117 15.3783C8.36218 15.3736 8.36335 15.3681 8.36463 15.3618C8.36576 15.3563 8.36698 15.3502 8.36828 15.3435C8.37385 15.3149 8.38091 15.2755 8.38834 15.2258C8.40319 15.1265 8.41954 14.9864 8.42841 14.8106C8.44615 14.4592 8.43398 13.9645 8.31951 13.3702C8.09656 12.2129 7.4892 10.6976 5.99584 9.13943V7.49879C6.16558 7.44818 6.39803 7.38351 6.68641 7.31409C7.35309 7.15363 8.31699 6.96826 9.49506 6.87231L9.9981 6.83134L9.95242 6.3287C9.95138 6.31722 9.95021 6.3071 9.94932 6.29975C9.95112 6.29096 9.95559 6.28234 9.96342 6.27451C9.974 6.26393 9.98603 6.25948 9.99797 6.25948H10.2576H10.7576V5.75948V3.72541V3.22541H10.2576H9.0509C8.86466 3.22541 8.71132 3.07206 8.71132 2.88582C8.71132 2.69959 8.86466 2.54624 9.0509 2.54624H10.2576H10.7576V2.04624V0.839586C10.7576 0.653348 10.9109 0.5 11.0971 0.5C11.2827 0.5 11.4375 0.65294 11.4388 0.840931V2.04827V2.54827H11.9388H13.1454C13.3316 2.54827 13.485 2.70161 13.485 2.88785C13.485 3.07409 13.3316 3.22744 13.1454 3.22744H11.9388H11.4388V3.72744V5.76354V6.26354H11.9388H12.1983C12.2103 6.26354 12.2223 6.26799 12.2329 6.27857C12.2402 6.28587 12.2446 6.29386 12.2466 6.30204L12.1574 6.83701L12.698 6.88235C13.794 6.97428 14.9717 7.16811 16.1984 7.51019V9.17771C14.7311 10.7232 14.1319 12.224 13.911 13.3724C13.7967 13.9667 13.7846 14.4613 13.8023 14.8127C13.8112 14.9884 13.8276 15.1286 13.8424 15.2279C13.8499 15.2775 13.8569 15.317 13.8625 15.3456C13.8653 15.3599 13.8677 15.3715 13.8696 15.3803L13.8721 15.3914L13.873 15.3954L13.8734 15.397L13.8735 15.3977C13.8736 15.398 13.8737 15.3983 14.3602 15.2829L13.8737 15.3983L13.9699 15.8039L14.3862 15.7822C14.845 15.7583 15.0561 15.8312 15.1401 15.882C15.1971 15.9164 15.2094 15.9457 15.2153 15.9937C15.2241 16.0659 15.2078 16.1658 15.1721 16.2707C15.1558 16.3188 15.1384 16.3591 15.1256 16.3864C15.1193 16.3999 15.1144 16.4097 15.1116 16.4151L15.1095 16.4191L15.1094 16.4191L15.1092 16.4196L14.8794 16.8278L15.2764 17.0827C15.8587 17.4566 16.0115 17.7246 16.0434 17.8518C16.0655 17.9399 16.0483 18.0406 15.9094 18.1889C15.7647 18.3434 15.5445 18.4807 15.3341 18.5849C15.2334 18.6347 15.1437 18.6727 15.0798 18.698C15.0481 18.7106 15.0232 18.7198 15.0071 18.7256L14.9898 18.7317L14.9875 18.7325L14.9872 18.7326L14.9869 18.7327L14.9867 18.7328L14.9866 18.7328L14.7394 18.8148L14.6655 19.0655C13.4115 23.3139 13.8234 27.6757 14.5347 30.952C14.8912 32.5941 15.3251 33.9736 15.6704 34.9438C15.8431 35.4292 15.9938 35.8127 16.102 36.0762C16.1561 36.2079 16.1995 36.3097 16.2297 36.3792C16.2399 36.4026 16.2486 36.4223 16.2556 36.4383L17.1004 40.2719L17.1869 40.6643H17.5887H18.1363C18.9431 40.6643 19.6055 41.3266 19.6055 42.1334C19.6055 42.793 19.158 43.3556 18.5433 43.5356L18.1838 43.6408V44.0154V44.3074Z" fill="#565352" stroke="black"/>
</svg>
