<svg width="32" height="50" viewBox="0 0 32 50" fill="none" xmlns="http://www.w3.org/2000/svg">
<path d="M3.28447 43.6001H2.78447H1.84812C1.10725 43.6001 0.5 44.2089 0.5 44.9482V48.1529C0.5 48.8942 1.10681 49.501 1.84812 49.501H24.2001C24.9414 49.501 25.5482 48.8942 25.5482 48.1529V44.9482C25.5482 44.2069 24.9414 43.6001 24.2001 43.6001H23.2465H22.7465V43.1001V42.4119V42.1801L22.9234 42.0303C23.2189 41.7802 23.4051 41.4105 23.4051 41.0037V39.9248C23.4051 39.1835 22.7983 38.5767 22.057 38.5767H20.7102H20.3834L20.2523 38.2773L19.8787 37.4246L19.7341 37.0944L20.0016 36.8529C21.1964 35.7738 21.8045 33.4204 20.7031 29.0255L20.2296 28.0762L20.2225 28.0648C20.219 28.0594 20.2152 28.0532 20.211 28.0465C20.1987 28.0268 20.183 28.0016 20.1642 27.9712C20.1138 27.8896 20.0406 27.7703 19.9493 27.6188C19.7667 27.3156 19.5111 26.8827 19.2179 26.3617C18.6324 25.3214 17.8929 23.9222 17.2862 22.5003C16.6856 21.0929 16.1905 19.6075 16.1385 18.4126C16.1125 17.8138 16.1944 17.2265 16.4896 16.7551C16.8001 16.2593 17.3027 15.9607 17.9615 15.8775L18.1018 15.8598L18.2281 15.9171L18.2282 15.9172L18.2284 15.9172L18.2291 15.9176L18.2351 15.9201C18.2428 15.9233 18.2566 15.9288 18.2761 15.936C18.3152 15.9505 18.3767 15.9715 18.4573 15.9935C18.619 16.0379 18.8541 16.0857 19.1376 16.0957C19.6982 16.1156 20.4552 15.9892 21.2303 15.3748L21.3706 15.2636L21.5496 15.2667L21.5409 15.7666C21.5496 15.2667 21.5497 15.2667 21.5497 15.2667L21.5499 15.2667L21.5502 15.2667L21.5513 15.2667L21.5546 15.2668L21.5659 15.267L21.6063 15.2682C21.6405 15.2693 21.6888 15.2712 21.7471 15.2742C21.8631 15.2803 22.022 15.2912 22.1897 15.3108C22.3543 15.3301 22.5426 15.3593 22.7114 15.4058C22.7958 15.429 22.8881 15.46 22.9753 15.5027C22.9972 15.5134 23.0215 15.5262 23.0472 15.5415C23.0583 15.5357 23.07 15.5295 23.0828 15.5228C23.0912 15.5185 23.0999 15.5139 23.1091 15.509L23.1134 15.5068C23.2038 15.4595 23.3559 15.38 23.5191 15.3409C23.6907 15.2997 23.9417 15.2881 24.1734 15.4502C24.1863 15.4523 24.2106 15.4552 24.2501 15.4556C24.3458 15.4564 24.4699 15.4416 24.6052 15.4158C24.7372 15.3907 24.863 15.3583 24.9572 15.3316C25.0038 15.3185 25.0415 15.307 25.0671 15.299L25.0955 15.29L25.1019 15.2879L25.1026 15.2877L25.1027 15.2876L25.1029 15.2876L25.103 15.2875L25.103 15.2875L25.2272 15.2458L25.3561 15.2707L25.3561 15.2707L25.3562 15.2707L25.3563 15.2707L25.3565 15.2707L25.3592 15.2712L25.3715 15.2735C25.3779 15.2747 25.3861 15.2762 25.3961 15.278C25.4037 15.2793 25.4123 15.2808 25.4219 15.2825C25.4662 15.2902 25.5305 15.3008 25.6084 15.3123C25.7655 15.3355 25.9725 15.3613 26.1808 15.3741C26.3955 15.3873 26.5834 15.3847 26.7135 15.3629C26.7232 15.3613 26.732 15.3596 26.7399 15.358L27.0262 14.596L27.5703 15.3598L27.5705 15.36L27.5706 15.3602L27.5708 15.3605L27.571 15.3607L27.5711 15.3609L27.5736 15.3642C27.5769 15.3687 27.5826 15.3763 27.5906 15.3867C27.6067 15.4075 27.6319 15.439 27.665 15.4778C27.732 15.5561 27.8287 15.6606 27.9473 15.7653C28.1982 15.9867 28.4811 16.1513 28.7467 16.1668C29.3869 16.1992 29.7313 15.9216 29.9361 15.6414C30.0447 15.4928 30.1158 15.3387 30.1594 15.22C30.1809 15.1614 30.195 15.1137 30.2032 15.0827C30.2073 15.0673 30.21 15.0562 30.2113 15.0502L30.2123 15.0458L30.2124 15.0452L30.2488 14.8544L30.4087 14.7381C30.5772 14.6155 30.7166 14.4513 30.7709 14.2224C30.8253 13.9928 30.813 13.6182 30.5196 13.0382L30.4255 12.852L30.4911 12.6556L30.4913 12.6552L30.4913 12.6551L30.4914 12.6547L30.4915 12.6545L30.4916 12.6542L30.4934 12.6482C30.4956 12.6412 30.4992 12.6293 30.5037 12.6132C30.5129 12.5808 30.5257 12.532 30.5389 12.4712C30.5657 12.3476 30.5918 12.1843 30.5946 12.0141C30.6007 11.6488 30.5049 11.4153 30.3008 11.305C30.0618 11.1791 29.8857 11.0708 29.7667 10.9717C29.7245 10.9366 29.6722 10.8886 29.6253 10.8271L28.9536 10.7071L28.9065 10.6986L28.8618 10.6814L29.0415 10.2149L28.8617 10.6814L28.8615 10.6813L28.8606 10.6809L28.857 10.6796L28.8433 10.6743L28.7899 10.6537L28.5874 10.5752C28.4129 10.5074 28.1633 10.4102 27.8628 10.2923C27.2619 10.0566 26.4566 9.73785 25.6401 9.40631C24.8245 9.07515 23.9937 8.72959 23.3434 8.44056C23.019 8.29637 22.7336 8.16365 22.5154 8.05223C22.4069 7.99678 22.3084 7.94326 22.2274 7.89367C22.164 7.8548 22.0553 7.78582 21.9766 7.69357L21.944 7.65548L21.9197 7.61169L21.2886 6.47532L20.3964 6.19144L20.3564 6.1787L20.3191 6.15947L20.548 5.71497L20.319 6.15943L20.3189 6.15936L20.3184 6.15912L20.3167 6.15822L20.3101 6.15482L20.2849 6.14178L20.19 6.09237C20.1083 6.04969 19.9915 5.98832 19.8505 5.91325C19.5686 5.76324 19.1886 5.55786 18.7978 5.3372C18.4084 5.11729 18.0021 4.87878 17.6701 4.66298C17.5045 4.55536 17.3508 4.44916 17.2245 4.35056C17.1115 4.26239 16.9748 4.14619 16.8872 4.01645L16.7803 3.85811L16.8058 3.67149L16.8058 3.67145L16.8058 3.67115L16.8059 3.67046L16.8066 3.66398C16.8075 3.65568 16.8089 3.64089 16.8102 3.62014C16.813 3.57861 16.8158 3.51351 16.8144 3.42899C16.8118 3.25958 16.7926 3.01474 16.7255 2.72665C16.6361 2.34306 16.4614 1.88088 16.1224 1.41364C16.2113 1.71965 16.2891 2.04847 16.3173 2.35921C16.3609 2.84046 16.3007 3.50283 15.6981 3.8409L15.6625 3.86086L15.6241 3.87479L14.6902 4.21394L14.2808 4.36261L14.0774 3.97751L13.1116 2.14905L13.0627 2.05644C13.0604 2.11701 13.0624 2.18595 13.0701 2.26426C13.0767 2.2795 13.0836 2.29635 13.0909 2.31477C13.1239 2.39831 13.1636 2.51472 13.1973 2.66005C13.265 2.95117 13.3092 3.35897 13.229 3.84816C13.0671 4.83677 12.4146 6.06451 10.6515 7.30109L10.6359 7.31527C10.6105 7.33849 10.5723 7.37361 10.5222 7.42022C10.4222 7.51344 10.2751 7.65258 10.0886 7.83424C9.71578 8.19762 9.18628 8.73079 8.56349 9.4066C7.31697 10.7593 5.70161 12.6781 4.22064 14.9462L3.28447 43.6001ZM3.28447 43.6001V43.1001M3.28447 43.6001V43.1001M15.822 0.352523L15.8221 0.352477L15.822 0.352523ZM15.822 0.352523L15.8197 0.355176M15.822 0.352523L15.8197 0.355176M15.8197 0.355176L15.8197 0.355221L15.8197 0.355176ZM3.28447 43.1001V42.6921V42.3673M3.28447 43.1001V42.3673M3.28447 42.3673L2.9877 42.2353M3.28447 42.3673L2.9877 42.2353M2.9877 42.2353C2.51329 42.0242 2.18346 41.5491 2.18346 41.0062V39.9273C2.18346 39.186 2.79027 38.5792 3.53158 38.5792H4.17547H5.11799M2.9877 42.2353L5.11799 38.5792M5.11799 38.5792L4.58946 37.7988M5.11799 38.5792L4.58946 37.7988M4.58946 37.7988C1.3312 32.988 1.13726 28.2611 1.75693 24.7267C2.06724 22.9568 2.58176 21.4875 3.01814 20.462C3.23616 19.9497 3.43419 19.5492 3.57657 19.2788C3.64774 19.1436 3.70495 19.041 3.74372 18.9733C3.7631 18.9394 3.77787 18.9142 3.78747 18.8981L3.79791 18.8806L3.80008 18.8771L3.80016 18.8769L3.80034 18.8766M4.58946 37.7988L3.80034 18.8766M3.80034 18.8766L3.80039 18.8766M3.80034 18.8766L3.80039 18.8766M3.80039 18.8766L3.81553 18.8519M3.80039 18.8766L3.81553 18.8519M3.81553 18.8519L3.82787 18.8253M3.81553 18.8519L3.82787 18.8253M3.82787 18.8253C4.19928 18.0246 4.10982 17.2422 4.03926 16.6251M3.82787 18.8253L4.03926 16.6251M4.03926 16.6251C4.03538 16.5911 4.03155 16.5577 4.02786 16.5247M4.03926 16.6251L4.02786 16.5247M4.02786 16.5247C3.95297 15.856 3.93017 15.3914 4.22058 14.9463L4.02786 16.5247ZM30.1332 10.9102L30.1663 10.6473C30.2213 10.6853 30.2925 10.7294 30.3834 10.7808C30.3123 10.8603 30.2338 10.8905 30.2137 10.898C30.1731 10.913 30.1452 10.9151 30.1446 10.9151C30.1423 10.9154 30.1408 10.9154 30.1401 10.9155C30.1399 10.9155 30.1398 10.9155 30.1396 10.9155L30.1371 10.9153L30.1351 10.9152L30.1339 10.9151L30.1333 10.9151L30.1329 10.915C30.1329 10.915 30.1328 10.915 30.1332 10.9102Z" fill="white" stroke="black"/>
</svg>
