<svg width="32" height="50" viewBox="0 0 32 50" fill="none" xmlns="http://www.w3.org/2000/svg">
<path d="M3.28447 43.5991H2.78447H1.84812C1.10725 43.5991 0.5 44.2079 0.5 44.9472V48.1519C0.5 48.8932 1.10681 49.5001 1.84812 49.5001H24.2001C24.9414 49.5001 25.5482 48.8932 25.5482 48.1519V44.9472C25.5482 44.2059 24.9414 43.5991 24.2001 43.5991H23.2465H22.7465V43.0991V42.411V42.1792L22.9234 42.0294C23.2189 41.7792 23.4051 41.4095 23.4051 41.0028V39.9239C23.4051 39.1826 22.7983 38.5758 22.057 38.5758H20.7102H20.3834L20.2523 38.2764L19.8787 37.4236L19.7341 37.0935L20.0016 36.8519C21.1964 35.7729 21.8045 33.4194 20.7031 29.0245L20.2296 28.0752L20.2225 28.0639C20.219 28.0584 20.2152 28.0523 20.211 28.0455C20.1987 28.0258 20.183 28.0006 20.1642 27.9702C20.1138 27.8886 20.0406 27.7694 19.9493 27.6178C19.7667 27.3147 19.5111 26.8817 19.2179 26.3607C18.6324 25.3204 17.8929 23.9212 17.2862 22.4994C16.6856 21.0919 16.1905 19.6065 16.1385 18.4116C16.1125 17.8128 16.1944 17.2255 16.4896 16.7541C16.8001 16.2583 17.3027 15.9597 17.9615 15.8766L18.1018 15.8589L18.2281 15.9161L18.2282 15.9162L18.2284 15.9163L18.2291 15.9166L18.2351 15.9191C18.2428 15.9223 18.2566 15.9278 18.2761 15.935C18.3152 15.9495 18.3767 15.9705 18.4573 15.9926C18.619 16.0369 18.8541 16.0847 19.1376 16.0947C19.6982 16.1146 20.4552 15.9882 21.2303 15.3738L21.3706 15.2626L21.5496 15.2657L21.5409 15.7656C21.5496 15.2657 21.5497 15.2657 21.5497 15.2657L21.5499 15.2657L21.5502 15.2657L21.5513 15.2657L21.5546 15.2658L21.5659 15.266L21.6063 15.2672C21.6405 15.2683 21.6888 15.2702 21.7471 15.2732C21.8631 15.2793 22.022 15.2902 22.1897 15.3098C22.3543 15.3291 22.5426 15.3584 22.7114 15.4048C22.7958 15.4281 22.8881 15.459 22.9753 15.5017C22.9972 15.5125 23.0215 15.5253 23.0472 15.5405C23.0583 15.5347 23.07 15.5285 23.0828 15.5218C23.0912 15.5175 23.0999 15.5129 23.1091 15.5081L23.1134 15.5058C23.2038 15.4586 23.3559 15.379 23.5191 15.3399C23.6907 15.2988 23.9417 15.2872 24.1734 15.4492C24.1863 15.4513 24.2106 15.4542 24.2501 15.4546C24.3458 15.4554 24.4699 15.4407 24.6052 15.4149C24.7372 15.3897 24.863 15.3573 24.9572 15.3307C25.0038 15.3175 25.0415 15.306 25.0671 15.2981L25.0955 15.289L25.1019 15.2869L25.1026 15.2867L25.1027 15.2866L25.1029 15.2866L25.103 15.2866L25.103 15.2865L25.2272 15.2449L25.3561 15.2697L25.3561 15.2697L25.3562 15.2697L25.3563 15.2697L25.3565 15.2698L25.3592 15.2703L25.3715 15.2725C25.3779 15.2737 25.3861 15.2752 25.3961 15.277C25.4037 15.2783 25.4123 15.2799 25.4219 15.2815C25.4662 15.2892 25.5305 15.2998 25.6084 15.3113C25.7655 15.3345 25.9725 15.3603 26.1808 15.3731C26.3955 15.3863 26.5834 15.3837 26.7135 15.3619C26.7232 15.3603 26.732 15.3587 26.7399 15.357L27.0262 14.5951L27.5703 15.3588L27.5705 15.359L27.5706 15.3592L27.5708 15.3596L27.571 15.3598L27.5711 15.36L27.5736 15.3632C27.5769 15.3677 27.5826 15.3753 27.5906 15.3857C27.6067 15.4065 27.6319 15.4381 27.665 15.4769C27.732 15.5551 27.8287 15.6596 27.9473 15.7643C28.1982 15.9858 28.4811 16.1503 28.7467 16.1658C29.3869 16.1982 29.7313 15.9206 29.9361 15.6404C30.0447 15.4918 30.1158 15.3377 30.1594 15.219C30.1809 15.1605 30.195 15.1127 30.2032 15.0817C30.2073 15.0663 30.21 15.0552 30.2113 15.0492L30.2123 15.0449L30.2124 15.0443L30.2488 14.8534L30.4087 14.7371C30.5772 14.6145 30.7166 14.4503 30.7709 14.2214C30.8253 13.9918 30.813 13.6172 30.5196 13.0372L30.4255 12.8511L30.4911 12.6547L30.4913 12.6542L30.4913 12.6541L30.4914 12.6538L30.4915 12.6535L30.4916 12.6532L30.4934 12.6473C30.4956 12.6402 30.4992 12.6283 30.5037 12.6122C30.5129 12.5798 30.5257 12.531 30.5389 12.4702C30.5657 12.3467 30.5918 12.1833 30.5946 12.0131C30.6007 11.6478 30.5049 11.4143 30.3008 11.3041C30.0618 11.1782 29.8857 11.0698 29.7667 10.9707C29.7245 10.9356 29.6722 10.8876 29.6253 10.8261L28.9536 10.7061L28.9065 10.6977L28.8618 10.6804L29.0415 10.2139L28.8617 10.6804L28.8615 10.6803L28.8606 10.68L28.857 10.6786L28.8433 10.6733L28.7899 10.6527L28.5874 10.5742C28.4129 10.5065 28.1633 10.4092 27.8628 10.2913C27.2619 10.0556 26.4566 9.73687 25.6401 9.40533C24.8245 9.07417 23.9937 8.72861 23.3434 8.43958C23.019 8.2954 22.7336 8.16268 22.5154 8.05125C22.4069 7.9958 22.3084 7.94229 22.2274 7.89269C22.164 7.85382 22.0553 7.78485 21.9766 7.6926L21.944 7.6545L21.9197 7.61072L21.2886 6.47434L20.3964 6.19046L20.3564 6.17773L20.3191 6.15849L20.548 5.714L20.319 6.15846L20.3189 6.15839L20.3184 6.15814L20.3167 6.15725L20.3101 6.15385L20.2849 6.1408L20.19 6.09139C20.1083 6.04872 19.9915 5.98734 19.8505 5.91227C19.5686 5.76227 19.1886 5.55688 18.7978 5.33622C18.4084 5.11631 18.0021 4.8778 17.6701 4.66201C17.5045 4.55439 17.3508 4.44818 17.2245 4.34959C17.1115 4.26142 16.9748 4.14521 16.8872 4.01547L16.7803 3.85714L16.8058 3.67051L16.8058 3.67047L16.8058 3.67017L16.8059 3.66948L16.8066 3.66301C16.8075 3.6547 16.8089 3.63991 16.8102 3.61917C16.813 3.57763 16.8158 3.51253 16.8144 3.42801C16.8118 3.2586 16.7926 3.01376 16.7255 2.72567C16.6361 2.34208 16.4614 1.87991 16.1224 1.41267C16.2113 1.71867 16.2891 2.04749 16.3173 2.35823C16.3609 2.83949 16.3007 3.50186 15.6981 3.83992L15.6625 3.85989L15.6241 3.87382L14.6902 4.21297L14.2808 4.36163L14.0774 3.97653L13.1116 2.14807L13.0627 2.05547C13.0604 2.11603 13.0624 2.18497 13.0701 2.26328C13.0767 2.27853 13.0836 2.29538 13.0909 2.3138C13.1239 2.39733 13.1636 2.51375 13.1973 2.65907C13.265 2.9502 13.3092 3.35799 13.229 3.84718C13.0671 4.83579 12.4146 6.06353 10.6515 7.30011L10.6359 7.3143C10.6105 7.33751 10.5723 7.37263 10.5222 7.41924C10.4222 7.51247 10.2751 7.6516 10.0886 7.83326C9.71578 8.19664 9.18628 8.72981 8.56349 9.40562C7.31697 10.7583 5.70161 12.6771 4.22064 14.9452L3.28447 43.5991ZM3.28447 43.5991V43.0991M3.28447 43.5991V43.0991M15.822 0.351547L15.8221 0.351501L15.822 0.351547ZM15.822 0.351547L15.8197 0.354199M15.822 0.351547L15.8197 0.354199M15.8197 0.354199L15.8197 0.354245L15.8197 0.354199ZM3.28447 43.0991V42.6911V42.3663M3.28447 43.0991V42.3663M3.28447 42.3663L2.9877 42.2343M3.28447 42.3663L2.9877 42.2343M2.9877 42.2343C2.51329 42.0233 2.18346 41.5481 2.18346 41.0052V39.9263C2.18346 39.185 2.79027 38.5782 3.53158 38.5782H4.17547H5.11799M2.9877 42.2343L5.11799 38.5782M5.11799 38.5782L4.58946 37.7978M5.11799 38.5782L4.58946 37.7978M4.58946 37.7978C1.3312 32.987 1.13726 28.2601 1.75693 24.7258C2.06724 22.9558 2.58176 21.4865 3.01814 20.461C3.23616 19.9487 3.43419 19.5483 3.57657 19.2778C3.64774 19.1426 3.70495 19.0401 3.74372 18.9723C3.7631 18.9384 3.77787 18.9133 3.78747 18.8971L3.79791 18.8797L3.80008 18.8761L3.80016 18.876L3.80034 18.8757M4.58946 37.7978L3.80034 18.8757M3.80034 18.8757L3.80039 18.8756M3.80034 18.8757L3.80039 18.8756M3.80039 18.8756L3.81553 18.851M3.80039 18.8756L3.81553 18.851M3.81553 18.851L3.82787 18.8244M3.81553 18.851L3.82787 18.8244M3.82787 18.8244C4.19928 18.0237 4.10982 17.2413 4.03926 16.6241M3.82787 18.8244L4.03926 16.6241M4.03926 16.6241C4.03538 16.5902 4.03155 16.5567 4.02786 16.5237M4.03926 16.6241L4.02786 16.5237M4.02786 16.5237C3.95297 15.8551 3.93017 15.3904 4.22058 14.9453L4.02786 16.5237ZM30.1332 10.9093L30.1663 10.6463C30.2213 10.6843 30.2925 10.7285 30.3834 10.7798C30.3123 10.8594 30.2338 10.8896 30.2137 10.897C30.1731 10.912 30.1452 10.9141 30.1446 10.9142C30.1423 10.9144 30.1408 10.9145 30.1401 10.9145C30.1399 10.9145 30.1398 10.9145 30.1396 10.9145L30.1371 10.9143L30.1351 10.9142L30.1339 10.9141L30.1333 10.9141L30.1329 10.9141C30.1329 10.914 30.1328 10.914 30.1332 10.9093Z" fill="#565352" stroke="black"/>
</svg>
