<svg width="24" height="24" viewBox="0 0 24 24" fill="none" xmlns="http://www.w3.org/2000/svg">
<path d="M5.92476 12.2754V12.276H7.67211V12.2754C7.70413 12.0673 7.80185 11.8747 7.95113 11.7261C8.25922 11.4152 8.43167 10.9951 8.43083 10.5576C8.43083 9.63463 7.70266 8.93896 6.79842 8.93896C5.89418 8.93896 5.16602 9.6348 5.16602 10.5576C5.16536 10.9951 5.3378 11.4152 5.64588 11.7261C5.79484 11.8748 5.89255 12.0673 5.92474 12.2754H5.92476Z" fill="#CEB766"/>
<path d="M3.89025 18.2862L4.64509 19.5919C4.74713 19.7755 4.62474 19.9999 4.40031 19.9999H2.27857C2.0745 19.9999 1.93176 19.7755 2.03379 19.5919L2.78863 18.2862C2.52336 18.1026 2.31942 17.7762 2.31942 17.4293C2.31942 17.0417 2.5235 16.7152 2.84984 16.5521V9.71744L12.3776 3.69885C12.5205 3.61731 12.704 3.61731 12.8264 3.69885L21.7829 9.37061C22.0482 9.53384 22.0482 9.9215 21.7829 10.1051L12.8264 15.7564C12.6835 15.838 12.4999 15.838 12.3776 15.7564L3.84954 10.3703V16.5317C4.15551 16.6949 4.35958 17.0418 4.35958 17.4089C4.38008 17.7966 4.176 18.1231 3.89038 18.2863L3.89025 18.2862ZM12.8263 16.9602C12.6834 17.0622 12.4999 17.0622 12.3571 16.9602L12.0511 16.7561L6.25698 13.1041C6.11409 13.0021 5.91016 13.1245 5.91016 13.2877V15.6544C5.91016 15.7359 5.95101 15.7973 6.0122 15.838L12.3776 19.8367C12.5205 19.9183 12.7041 19.9183 12.8265 19.8367L19.1919 15.838C19.2531 15.7971 19.2939 15.7156 19.2939 15.6544V13.2877C19.2939 13.1041 19.0899 13.0021 18.9471 13.1041L13.1529 16.7561L12.8263 16.9602Z" fill="#CEB766"/>
</svg>
