<svg width="301" height="48" viewBox="0 0 301 48" fill="none" xmlns="http://www.w3.org/2000/svg">
<g filter="url(#filter0_d_28_106)">
<mask id="path-1-outside-1_28_106" maskUnits="userSpaceOnUse" x="4" y="0" width="293" height="40" fill="black">
<rect fill="white" x="4" width="293" height="40"/>
<path d="M5 1.62983H13.329V31.442H31.3753V38.3702H5V1.62983Z"/>
<path d="M52.8558 39C49.1197 39 45.7436 38.1777 42.7273 36.5331C39.7453 34.8886 37.3974 32.6317 35.6836 29.7624C34.0041 26.8582 33.1643 23.6041 33.1643 20C33.1643 16.3959 34.0041 13.1593 35.6836 10.2901C37.3974 7.38582 39.7453 5.11142 42.7273 3.46685C45.7436 1.82228 49.1197 1 52.8558 1C56.5919 1 59.9509 1.82228 62.9329 3.46685C65.9149 5.11142 68.2628 7.38582 69.9766 10.2901C71.6904 13.1593 72.5473 16.3959 72.5473 20C72.5473 23.6041 71.6904 26.8582 69.9766 29.7624C68.2628 32.6317 65.9149 34.8886 62.9329 36.5331C59.9509 38.1777 56.5919 39 52.8558 39ZM52.8558 31.7569C54.9809 31.7569 56.9004 31.267 58.6142 30.2873C60.328 29.2726 61.6647 27.8729 62.6244 26.0884C63.6184 24.3039 64.1154 22.2744 64.1154 20C64.1154 17.7256 63.6184 15.6961 62.6244 13.9116C61.6647 12.1271 60.328 10.7449 58.6142 9.76519C56.9004 8.75046 54.9809 8.24309 52.8558 8.24309C50.7307 8.24309 48.8113 8.75046 47.0975 9.76519C45.3837 10.7449 44.0298 12.1271 43.0358 13.9116C42.076 15.6961 41.5962 17.7256 41.5962 20C41.5962 22.2744 42.076 24.3039 43.0358 26.0884C44.0298 27.8729 45.3837 29.2726 47.0975 30.2873C48.8113 31.267 50.7307 31.7569 52.8558 31.7569Z"/>
<path d="M105.234 19.2652C107.29 19.93 108.901 21.0497 110.067 22.6243C111.232 24.1639 111.815 26.0709 111.815 28.3453C111.815 31.5645 110.581 34.0488 108.113 35.7983C105.679 37.5129 102.115 38.3702 97.4187 38.3702H78.8069V1.62983H96.3904C100.778 1.62983 104.137 2.48711 106.468 4.20166C108.833 5.9162 110.015 8.24309 110.015 11.1823C110.015 12.9669 109.587 14.5589 108.73 15.9586C107.907 17.3582 106.742 18.4604 105.234 19.2652ZM87.0845 8.03315V16.6934H95.3622C97.4187 16.6934 98.9783 16.326 100.041 15.5912C101.103 14.8564 101.635 13.7716 101.635 12.337C101.635 10.9024 101.103 9.83518 100.041 9.13536C98.9783 8.40055 97.4187 8.03315 95.3622 8.03315H87.0845ZM96.8018 31.9669C98.9954 31.9669 100.641 31.5994 101.737 30.8646C102.869 30.1298 103.434 28.9926 103.434 27.453C103.434 24.4088 101.223 22.8867 96.8018 22.8867H87.0845V31.9669H96.8018Z"/>
<path d="M135.55 39C131.814 39 128.437 38.1777 125.421 36.5331C122.439 34.8886 120.091 32.6317 118.377 29.7624C116.698 26.8582 115.858 23.6041 115.858 20C115.858 16.3959 116.698 13.1593 118.377 10.2901C120.091 7.38582 122.439 5.11142 125.421 3.46685C128.437 1.82228 131.814 1 135.55 1C139.286 1 142.645 1.82228 145.627 3.46685C148.609 5.11142 150.957 7.38582 152.67 10.2901C154.384 13.1593 155.241 16.3959 155.241 20C155.241 23.6041 154.384 26.8582 152.67 29.7624C150.957 32.6317 148.609 34.8886 145.627 36.5331C142.645 38.1777 139.286 39 135.55 39ZM135.55 31.7569C137.675 31.7569 139.594 31.267 141.308 30.2873C143.022 29.2726 144.359 27.8729 145.318 26.0884C146.312 24.3039 146.809 22.2744 146.809 20C146.809 17.7256 146.312 15.6961 145.318 13.9116C144.359 12.1271 143.022 10.7449 141.308 9.76519C139.594 8.75046 137.675 8.24309 135.55 8.24309C133.425 8.24309 131.505 8.75046 129.791 9.76519C128.078 10.7449 126.724 12.1271 125.73 13.9116C124.77 15.6961 124.29 17.7256 124.29 20C124.29 22.2744 124.77 24.3039 125.73 26.0884C126.724 27.8729 128.078 29.2726 129.791 30.2873C131.505 31.267 133.425 31.7569 135.55 31.7569Z"/>
<path d="M173.326 39C170.481 39 167.722 38.6151 165.048 37.8453C162.409 37.0405 160.284 36.0083 158.673 34.7486L161.501 28.3453C163.043 29.5 164.877 30.4273 167.002 31.1271C169.127 31.8269 171.252 32.1768 173.377 32.1768C175.742 32.1768 177.491 31.8269 178.622 31.1271C179.753 30.3923 180.318 29.43 180.318 28.2403C180.318 27.3656 179.976 26.6483 179.29 26.0884C178.639 25.4936 177.782 25.0212 176.719 24.6713C175.691 24.3214 174.286 23.9365 172.503 23.5166C169.761 22.8517 167.516 22.1869 165.768 21.5221C164.02 20.8573 162.512 19.7901 161.244 18.3204C160.01 16.8508 159.393 14.8913 159.393 12.442C159.393 10.3076 159.958 8.38306 161.09 6.66851C162.221 4.91897 163.917 3.53683 166.179 2.5221C168.476 1.50737 171.269 1 174.56 1C176.856 1 179.101 1.27993 181.295 1.83978C183.489 2.39963 185.408 3.20442 187.053 4.25414L184.483 10.7099C181.158 8.78545 177.833 7.8232 174.508 7.8232C172.178 7.8232 170.447 8.2081 169.316 8.9779C168.219 9.7477 167.67 10.7624 167.67 12.0221C167.67 13.2818 168.305 14.2265 169.573 14.8564C170.875 15.4512 172.846 16.046 175.485 16.6409C178.227 17.3057 180.473 17.9705 182.221 18.6354C183.969 19.3002 185.46 20.3499 186.694 21.7845C187.962 23.2192 188.596 25.1611 188.596 27.6105C188.596 29.7099 188.013 31.6344 186.848 33.384C185.717 35.0985 184.003 36.4632 181.706 37.4779C179.41 38.4926 176.616 39 173.326 39Z"/>
<path d="M201.24 8.55801H189.723V1.62983H221.086V8.55801H209.569V38.3702H201.24V8.55801Z"/>
<path d="M247.462 30.4972H230.752L227.564 38.3702H219.03L235.071 1.62983H243.297L259.389 38.3702H250.649L247.462 30.4972ZM244.839 24.0414L239.132 9.97514L233.426 24.0414H244.839Z"/>
<path d="M286.054 38.3702L279.113 28.1354H271.452V38.3702H263.123V1.62983H278.702C281.889 1.62983 284.649 2.17219 286.979 3.25691C289.344 4.34162 291.161 5.88122 292.429 7.87569C293.698 9.87016 294.332 12.232 294.332 14.9613C294.332 17.6906 293.68 20.0525 292.378 22.047C291.11 24.0064 289.293 25.511 286.928 26.5608L295 38.3702H286.054ZM285.9 14.9613C285.9 12.8969 285.248 11.3223 283.946 10.2376C282.644 9.11786 280.741 8.55801 278.239 8.55801H271.452V21.3646H278.239C280.741 21.3646 282.644 20.8048 283.946 19.6851C285.248 18.5654 285.9 16.9908 285.9 14.9613Z"/>
</mask>
<path d="M5 1.62983H13.329V31.442H31.3753V38.3702H5V1.62983Z" fill="white"/>
<path d="M52.8558 39C49.1197 39 45.7436 38.1777 42.7273 36.5331C39.7453 34.8886 37.3974 32.6317 35.6836 29.7624C34.0041 26.8582 33.1643 23.6041 33.1643 20C33.1643 16.3959 34.0041 13.1593 35.6836 10.2901C37.3974 7.38582 39.7453 5.11142 42.7273 3.46685C45.7436 1.82228 49.1197 1 52.8558 1C56.5919 1 59.9509 1.82228 62.9329 3.46685C65.9149 5.11142 68.2628 7.38582 69.9766 10.2901C71.6904 13.1593 72.5473 16.3959 72.5473 20C72.5473 23.6041 71.6904 26.8582 69.9766 29.7624C68.2628 32.6317 65.9149 34.8886 62.9329 36.5331C59.9509 38.1777 56.5919 39 52.8558 39ZM52.8558 31.7569C54.9809 31.7569 56.9004 31.267 58.6142 30.2873C60.328 29.2726 61.6647 27.8729 62.6244 26.0884C63.6184 24.3039 64.1154 22.2744 64.1154 20C64.1154 17.7256 63.6184 15.6961 62.6244 13.9116C61.6647 12.1271 60.328 10.7449 58.6142 9.76519C56.9004 8.75046 54.9809 8.24309 52.8558 8.24309C50.7307 8.24309 48.8113 8.75046 47.0975 9.76519C45.3837 10.7449 44.0298 12.1271 43.0358 13.9116C42.076 15.6961 41.5962 17.7256 41.5962 20C41.5962 22.2744 42.076 24.3039 43.0358 26.0884C44.0298 27.8729 45.3837 29.2726 47.0975 30.2873C48.8113 31.267 50.7307 31.7569 52.8558 31.7569Z" fill="white"/>
<path d="M105.234 19.2652C107.29 19.93 108.901 21.0497 110.067 22.6243C111.232 24.1639 111.815 26.0709 111.815 28.3453C111.815 31.5645 110.581 34.0488 108.113 35.7983C105.679 37.5129 102.115 38.3702 97.4187 38.3702H78.8069V1.62983H96.3904C100.778 1.62983 104.137 2.48711 106.468 4.20166C108.833 5.9162 110.015 8.24309 110.015 11.1823C110.015 12.9669 109.587 14.5589 108.73 15.9586C107.907 17.3582 106.742 18.4604 105.234 19.2652ZM87.0845 8.03315V16.6934H95.3622C97.4187 16.6934 98.9783 16.326 100.041 15.5912C101.103 14.8564 101.635 13.7716 101.635 12.337C101.635 10.9024 101.103 9.83518 100.041 9.13536C98.9783 8.40055 97.4187 8.03315 95.3622 8.03315H87.0845ZM96.8018 31.9669C98.9954 31.9669 100.641 31.5994 101.737 30.8646C102.869 30.1298 103.434 28.9926 103.434 27.453C103.434 24.4088 101.223 22.8867 96.8018 22.8867H87.0845V31.9669H96.8018Z" fill="white"/>
<path d="M135.55 39C131.814 39 128.437 38.1777 125.421 36.5331C122.439 34.8886 120.091 32.6317 118.377 29.7624C116.698 26.8582 115.858 23.6041 115.858 20C115.858 16.3959 116.698 13.1593 118.377 10.2901C120.091 7.38582 122.439 5.11142 125.421 3.46685C128.437 1.82228 131.814 1 135.55 1C139.286 1 142.645 1.82228 145.627 3.46685C148.609 5.11142 150.957 7.38582 152.67 10.2901C154.384 13.1593 155.241 16.3959 155.241 20C155.241 23.6041 154.384 26.8582 152.67 29.7624C150.957 32.6317 148.609 34.8886 145.627 36.5331C142.645 38.1777 139.286 39 135.55 39ZM135.55 31.7569C137.675 31.7569 139.594 31.267 141.308 30.2873C143.022 29.2726 144.359 27.8729 145.318 26.0884C146.312 24.3039 146.809 22.2744 146.809 20C146.809 17.7256 146.312 15.6961 145.318 13.9116C144.359 12.1271 143.022 10.7449 141.308 9.76519C139.594 8.75046 137.675 8.24309 135.55 8.24309C133.425 8.24309 131.505 8.75046 129.791 9.76519C128.078 10.7449 126.724 12.1271 125.73 13.9116C124.77 15.6961 124.29 17.7256 124.29 20C124.29 22.2744 124.77 24.3039 125.73 26.0884C126.724 27.8729 128.078 29.2726 129.791 30.2873C131.505 31.267 133.425 31.7569 135.55 31.7569Z" fill="white"/>
<path d="M173.326 39C170.481 39 167.722 38.6151 165.048 37.8453C162.409 37.0405 160.284 36.0083 158.673 34.7486L161.501 28.3453C163.043 29.5 164.877 30.4273 167.002 31.1271C169.127 31.8269 171.252 32.1768 173.377 32.1768C175.742 32.1768 177.491 31.8269 178.622 31.1271C179.753 30.3923 180.318 29.43 180.318 28.2403C180.318 27.3656 179.976 26.6483 179.29 26.0884C178.639 25.4936 177.782 25.0212 176.719 24.6713C175.691 24.3214 174.286 23.9365 172.503 23.5166C169.761 22.8517 167.516 22.1869 165.768 21.5221C164.02 20.8573 162.512 19.7901 161.244 18.3204C160.01 16.8508 159.393 14.8913 159.393 12.442C159.393 10.3076 159.958 8.38306 161.09 6.66851C162.221 4.91897 163.917 3.53683 166.179 2.5221C168.476 1.50737 171.269 1 174.56 1C176.856 1 179.101 1.27993 181.295 1.83978C183.489 2.39963 185.408 3.20442 187.053 4.25414L184.483 10.7099C181.158 8.78545 177.833 7.8232 174.508 7.8232C172.178 7.8232 170.447 8.2081 169.316 8.9779C168.219 9.7477 167.67 10.7624 167.67 12.0221C167.67 13.2818 168.305 14.2265 169.573 14.8564C170.875 15.4512 172.846 16.046 175.485 16.6409C178.227 17.3057 180.473 17.9705 182.221 18.6354C183.969 19.3002 185.46 20.3499 186.694 21.7845C187.962 23.2192 188.596 25.1611 188.596 27.6105C188.596 29.7099 188.013 31.6344 186.848 33.384C185.717 35.0985 184.003 36.4632 181.706 37.4779C179.41 38.4926 176.616 39 173.326 39Z" fill="white"/>
<path d="M201.24 8.55801H189.723V1.62983H221.086V8.55801H209.569V38.3702H201.24V8.55801Z" fill="white"/>
<path d="M247.462 30.4972H230.752L227.564 38.3702H219.03L235.071 1.62983H243.297L259.389 38.3702H250.649L247.462 30.4972ZM244.839 24.0414L239.132 9.97514L233.426 24.0414H244.839Z" fill="white"/>
<path d="M286.054 38.3702L279.113 28.1354H271.452V38.3702H263.123V1.62983H278.702C281.889 1.62983 284.649 2.17219 286.979 3.25691C289.344 4.34162 291.161 5.88122 292.429 7.87569C293.698 9.87016 294.332 12.232 294.332 14.9613C294.332 17.6906 293.68 20.0525 292.378 22.047C291.11 24.0064 289.293 25.511 286.928 26.5608L295 38.3702H286.054ZM285.9 14.9613C285.9 12.8969 285.248 11.3223 283.946 10.2376C282.644 9.11786 280.741 8.55801 278.239 8.55801H271.452V21.3646H278.239C280.741 21.3646 282.644 20.8048 283.946 19.6851C285.248 18.5654 285.9 16.9908 285.9 14.9613Z" fill="white"/>
<path d="M5 1.62983H13.329V31.442H31.3753V38.3702H5V1.62983Z" stroke="black" stroke-width="2" mask="url(#path-1-outside-1_28_106)"/>
<path d="M52.8558 39C49.1197 39 45.7436 38.1777 42.7273 36.5331C39.7453 34.8886 37.3974 32.6317 35.6836 29.7624C34.0041 26.8582 33.1643 23.6041 33.1643 20C33.1643 16.3959 34.0041 13.1593 35.6836 10.2901C37.3974 7.38582 39.7453 5.11142 42.7273 3.46685C45.7436 1.82228 49.1197 1 52.8558 1C56.5919 1 59.9509 1.82228 62.9329 3.46685C65.9149 5.11142 68.2628 7.38582 69.9766 10.2901C71.6904 13.1593 72.5473 16.3959 72.5473 20C72.5473 23.6041 71.6904 26.8582 69.9766 29.7624C68.2628 32.6317 65.9149 34.8886 62.9329 36.5331C59.9509 38.1777 56.5919 39 52.8558 39ZM52.8558 31.7569C54.9809 31.7569 56.9004 31.267 58.6142 30.2873C60.328 29.2726 61.6647 27.8729 62.6244 26.0884C63.6184 24.3039 64.1154 22.2744 64.1154 20C64.1154 17.7256 63.6184 15.6961 62.6244 13.9116C61.6647 12.1271 60.328 10.7449 58.6142 9.76519C56.9004 8.75046 54.9809 8.24309 52.8558 8.24309C50.7307 8.24309 48.8113 8.75046 47.0975 9.76519C45.3837 10.7449 44.0298 12.1271 43.0358 13.9116C42.076 15.6961 41.5962 17.7256 41.5962 20C41.5962 22.2744 42.076 24.3039 43.0358 26.0884C44.0298 27.8729 45.3837 29.2726 47.0975 30.2873C48.8113 31.267 50.7307 31.7569 52.8558 31.7569Z" stroke="black" stroke-width="2" mask="url(#path-1-outside-1_28_106)"/>
<path d="M105.234 19.2652C107.29 19.93 108.901 21.0497 110.067 22.6243C111.232 24.1639 111.815 26.0709 111.815 28.3453C111.815 31.5645 110.581 34.0488 108.113 35.7983C105.679 37.5129 102.115 38.3702 97.4187 38.3702H78.8069V1.62983H96.3904C100.778 1.62983 104.137 2.48711 106.468 4.20166C108.833 5.9162 110.015 8.24309 110.015 11.1823C110.015 12.9669 109.587 14.5589 108.73 15.9586C107.907 17.3582 106.742 18.4604 105.234 19.2652ZM87.0845 8.03315V16.6934H95.3622C97.4187 16.6934 98.9783 16.326 100.041 15.5912C101.103 14.8564 101.635 13.7716 101.635 12.337C101.635 10.9024 101.103 9.83518 100.041 9.13536C98.9783 8.40055 97.4187 8.03315 95.3622 8.03315H87.0845ZM96.8018 31.9669C98.9954 31.9669 100.641 31.5994 101.737 30.8646C102.869 30.1298 103.434 28.9926 103.434 27.453C103.434 24.4088 101.223 22.8867 96.8018 22.8867H87.0845V31.9669H96.8018Z" stroke="black" stroke-width="2" mask="url(#path-1-outside-1_28_106)"/>
<path d="M135.55 39C131.814 39 128.437 38.1777 125.421 36.5331C122.439 34.8886 120.091 32.6317 118.377 29.7624C116.698 26.8582 115.858 23.6041 115.858 20C115.858 16.3959 116.698 13.1593 118.377 10.2901C120.091 7.38582 122.439 5.11142 125.421 3.46685C128.437 1.82228 131.814 1 135.55 1C139.286 1 142.645 1.82228 145.627 3.46685C148.609 5.11142 150.957 7.38582 152.67 10.2901C154.384 13.1593 155.241 16.3959 155.241 20C155.241 23.6041 154.384 26.8582 152.67 29.7624C150.957 32.6317 148.609 34.8886 145.627 36.5331C142.645 38.1777 139.286 39 135.55 39ZM135.55 31.7569C137.675 31.7569 139.594 31.267 141.308 30.2873C143.022 29.2726 144.359 27.8729 145.318 26.0884C146.312 24.3039 146.809 22.2744 146.809 20C146.809 17.7256 146.312 15.6961 145.318 13.9116C144.359 12.1271 143.022 10.7449 141.308 9.76519C139.594 8.75046 137.675 8.24309 135.55 8.24309C133.425 8.24309 131.505 8.75046 129.791 9.76519C128.078 10.7449 126.724 12.1271 125.73 13.9116C124.77 15.6961 124.29 17.7256 124.29 20C124.29 22.2744 124.77 24.3039 125.73 26.0884C126.724 27.8729 128.078 29.2726 129.791 30.2873C131.505 31.267 133.425 31.7569 135.55 31.7569Z" stroke="black" stroke-width="2" mask="url(#path-1-outside-1_28_106)"/>
<path d="M173.326 39C170.481 39 167.722 38.6151 165.048 37.8453C162.409 37.0405 160.284 36.0083 158.673 34.7486L161.501 28.3453C163.043 29.5 164.877 30.4273 167.002 31.1271C169.127 31.8269 171.252 32.1768 173.377 32.1768C175.742 32.1768 177.491 31.8269 178.622 31.1271C179.753 30.3923 180.318 29.43 180.318 28.2403C180.318 27.3656 179.976 26.6483 179.29 26.0884C178.639 25.4936 177.782 25.0212 176.719 24.6713C175.691 24.3214 174.286 23.9365 172.503 23.5166C169.761 22.8517 167.516 22.1869 165.768 21.5221C164.02 20.8573 162.512 19.7901 161.244 18.3204C160.01 16.8508 159.393 14.8913 159.393 12.442C159.393 10.3076 159.958 8.38306 161.09 6.66851C162.221 4.91897 163.917 3.53683 166.179 2.5221C168.476 1.50737 171.269 1 174.56 1C176.856 1 179.101 1.27993 181.295 1.83978C183.489 2.39963 185.408 3.20442 187.053 4.25414L184.483 10.7099C181.158 8.78545 177.833 7.8232 174.508 7.8232C172.178 7.8232 170.447 8.2081 169.316 8.9779C168.219 9.7477 167.67 10.7624 167.67 12.0221C167.67 13.2818 168.305 14.2265 169.573 14.8564C170.875 15.4512 172.846 16.046 175.485 16.6409C178.227 17.3057 180.473 17.9705 182.221 18.6354C183.969 19.3002 185.46 20.3499 186.694 21.7845C187.962 23.2192 188.596 25.1611 188.596 27.6105C188.596 29.7099 188.013 31.6344 186.848 33.384C185.717 35.0985 184.003 36.4632 181.706 37.4779C179.41 38.4926 176.616 39 173.326 39Z" stroke="black" stroke-width="2" mask="url(#path-1-outside-1_28_106)"/>
<path d="M201.24 8.55801H189.723V1.62983H221.086V8.55801H209.569V38.3702H201.24V8.55801Z" stroke="black" stroke-width="2" mask="url(#path-1-outside-1_28_106)"/>
<path d="M247.462 30.4972H230.752L227.564 38.3702H219.03L235.071 1.62983H243.297L259.389 38.3702H250.649L247.462 30.4972ZM244.839 24.0414L239.132 9.97514L233.426 24.0414H244.839Z" stroke="black" stroke-width="2" mask="url(#path-1-outside-1_28_106)"/>
<path d="M286.054 38.3702L279.113 28.1354H271.452V38.3702H263.123V1.62983H278.702C281.889 1.62983 284.649 2.17219 286.979 3.25691C289.344 4.34162 291.161 5.88122 292.429 7.87569C293.698 9.87016 294.332 12.232 294.332 14.9613C294.332 17.6906 293.68 20.0525 292.378 22.047C291.11 24.0064 289.293 25.511 286.928 26.5608L295 38.3702H286.054ZM285.9 14.9613C285.9 12.8969 285.248 11.3223 283.946 10.2376C282.644 9.11786 280.741 8.55801 278.239 8.55801H271.452V21.3646H278.239C280.741 21.3646 282.644 20.8048 283.946 19.6851C285.248 18.5654 285.9 16.9908 285.9 14.9613Z" stroke="black" stroke-width="2" mask="url(#path-1-outside-1_28_106)"/>
</g>
<defs>
<filter id="filter0_d_28_106" x="0" y="0" width="300.895" height="48" filterUnits="userSpaceOnUse" color-interpolation-filters="sRGB">
<feFlood flood-opacity="0" result="BackgroundImageFix"/>
<feColorMatrix in="SourceAlpha" type="matrix" values="0 0 0 0 0 0 0 0 0 0 0 0 0 0 0 0 0 0 127 0" result="hardAlpha"/>
<feOffset dy="4"/>
<feGaussianBlur stdDeviation="2"/>
<feComposite in2="hardAlpha" operator="out"/>
<feColorMatrix type="matrix" values="0 0 0 0 0 0 0 0 0 0 0 0 0 0 0 0 0 0 0.25 0"/>
<feBlend mode="normal" in2="BackgroundImageFix" result="effect1_dropShadow_28_106"/>
<feBlend mode="normal" in="SourceGraphic" in2="effect1_dropShadow_28_106" result="shape"/>
</filter>
</defs>
</svg>
