<svg width="36" height="36" viewBox="0 0 36 36" fill="none" xmlns="http://www.w3.org/2000/svg">
<path d="M12.7864 25.4528L18.0002 20.2391L23.2139 25.4528L25.4531 23.2137L20.2393 17.9999L25.4531 12.7862L23.2139 10.547L18.0002 15.7607L12.7864 10.547L10.5472 12.7862L15.761 17.9999L10.5472 23.2137L12.7864 25.4528Z" fill="#CEB766"/>
<path fill-rule="evenodd" clip-rule="evenodd" d="M18.0002 35.4166C8.3812 35.4166 0.583496 27.6189 0.583496 17.9999C0.583496 8.38096 8.3812 0.583252 18.0002 0.583252C27.6191 0.583252 35.4168 8.38096 35.4168 17.9999C35.4168 27.6189 27.6191 35.4166 18.0002 35.4166ZM18.0002 32.2499C25.8702 32.2499 32.2502 25.87 32.2502 17.9999C32.2502 10.1299 25.8702 3.74992 18.0002 3.74992C10.1301 3.74992 3.75016 10.1299 3.75016 17.9999C3.75016 25.87 10.1301 32.2499 18.0002 32.2499Z" fill="#CEB766"/>
</svg>
