<svg width="38" height="38" viewBox="0 0 38 38" fill="none" xmlns="http://www.w3.org/2000/svg">
<path fill-rule="evenodd" clip-rule="evenodd" d="M34.2 20.9H24.7C22.6013 20.9 20.9 22.6013 20.9 24.7V34.2C20.9 36.2987 22.6013 38 24.7 38H34.2C36.2987 38 38 36.2987 38 34.2V24.7C38 22.6013 36.2987 20.9 34.2 20.9ZM24.7 34.2V24.7H34.2V34.2H24.7Z" fill="#CEB766"/>
<path fill-rule="evenodd" clip-rule="evenodd" d="M17.1 3.8V34.2C17.1 36.2987 15.3987 38 13.3 38H3.8C1.70132 38 0 36.2987 0 34.2V3.8C0 1.70132 1.70132 0 3.8 0H13.3C15.3987 0 17.1 1.70132 17.1 3.8ZM13.3 3.8H3.8V34.2H13.3V3.8Z" fill="#CEB766"/>
<path fill-rule="evenodd" clip-rule="evenodd" d="M34.2 0H24.7C22.6013 0 20.9 1.70132 20.9 3.8V13.3C20.9 15.3987 22.6013 17.1 24.7 17.1H34.2C36.2987 17.1 38 15.3987 38 13.3V3.8C38 1.70132 36.2987 0 34.2 0ZM24.7 13.3V3.8H34.2V13.3H24.7Z" fill="#CEB766"/>
</svg>
