<svg width="24" height="24" viewBox="0 0 24 24" fill="none" xmlns="http://www.w3.org/2000/svg">
<path d="M20.8957 3.40862C20.4645 2.30451 19.2265 1.74502 18.0996 2.11238C16.5321 2.62344 14.9227 2.80674 13.887 2.69785C12.734 2.57534 10.7326 2.15278 9.28341 2.65548C8.39313 2.96423 7.54868 3.52062 7.02202 4.04699C6.62557 4.43883 6.2999 4.8962 6.05917 5.39889C6.05211 5.41482 6.05786 5.43354 6.0728 5.44241C6.08775 5.45145 6.10713 5.44783 6.1178 5.4342C6.88767 4.46034 7.97404 3.55774 9.63797 3.21485C9.78726 3.18397 9.93309 3.28005 9.96396 3.42933C9.99467 3.57861 9.8986 3.72461 9.74932 3.75532C7.65247 4.18738 6.54984 5.62223 5.82562 6.84999C5.38763 7.61364 5.26428 8.40983 5.31406 8.71282C5.40323 9.26677 6.05194 9.55711 6.45083 9.17268C6.80063 8.83536 8.31775 6.64163 9.33285 6.31563C10.7032 5.87238 11.4195 7.15252 11.4315 7.90667C11.4478 8.93047 10.0545 10.8685 9.9055 11.1853C9.44485 12.166 10.4026 12.9964 11.3254 12.2867C13.2496 10.8071 14.9998 8.41903 18.1459 6.88139C18.473 6.72143 19.011 6.51517 19.5735 6.31416H19.5736C20.1397 6.11134 20.5997 5.68811 20.8487 5.14077C21.0978 4.59338 21.1147 3.96868 20.8958 3.40851L20.8957 3.40862Z" fill="#CEB766"/>
<path d="M5.80183 18.839H9.79909C9.90568 18.8401 10.0083 18.7986 10.084 18.7235C10.1597 18.6486 10.2024 18.5465 10.2024 18.44C10.2024 18.3335 10.1597 18.2313 10.084 18.1564C10.0083 18.0814 9.90567 18.0398 9.79909 18.041H9.67379C9.49264 17.0559 9.08553 16.4124 9.01066 15.0414C9.00803 14.9959 8.99407 14.642 8.99128 14.5236L8.99144 14.5237C9.23532 14.4986 9.42073 14.2933 9.42073 14.0482C9.42057 13.8263 9.26784 13.6338 9.05205 13.5831C9.15239 13.5026 9.21069 13.3809 9.21069 13.2523C9.21069 13.0178 9.02051 12.8276 8.78585 12.8276H6.8153C6.58079 12.8276 6.3906 13.0178 6.3906 13.2523C6.39043 13.3809 6.4489 13.5026 6.54924 13.5831C6.33328 13.6338 6.18055 13.8263 6.18055 14.0482C6.18055 14.2934 6.36596 14.4986 6.60984 14.5237C6.60705 14.6422 6.59309 14.996 6.59046 15.0415C6.51558 16.4125 6.10811 17.0556 5.927 18.0411L5.80186 18.041C5.69527 18.0398 5.59279 18.0814 5.51692 18.1564C5.44122 18.2313 5.39868 18.3335 5.39868 18.44C5.39868 18.5465 5.44122 18.6486 5.51692 18.7235C5.5928 18.7986 5.69528 18.8401 5.80186 18.839L5.80183 18.839Z" fill="#CEB766"/>
<path d="M10.7147 21.1889H10.6818C10.8354 21.0857 10.9504 20.9345 11.0088 20.7589C11.0144 20.7425 11.0192 20.7257 11.0236 20.709H11.0238C11.043 20.6375 11.0527 20.5638 11.0523 20.4899C11.0523 20.1997 10.937 19.9214 10.7319 19.7161C10.5266 19.5108 10.2483 19.3955 9.95794 19.3955H5.64233C5.35214 19.3953 5.07363 19.5105 4.86834 19.7158C4.66305 19.921 4.54777 20.1996 4.54793 20.4899C4.54777 20.5638 4.55746 20.6375 4.57667 20.709C4.58127 20.7257 4.58636 20.7425 4.59194 20.7589C4.6509 20.9343 4.76586 21.0854 4.91925 21.1889H4.88575C4.66338 21.1913 4.48438 21.3722 4.48438 21.5945C4.48438 21.8169 4.66338 21.9977 4.88575 22.0002H10.7144C10.9368 21.9977 11.1157 21.8169 11.1157 21.5945C11.1157 21.3721 10.9368 21.1913 10.7144 21.1889L10.7147 21.1889Z" fill="#CEB766"/>
<path d="M6.92476 12.2754V12.276H8.67211V12.2754C8.70413 12.0673 8.80185 11.8747 8.95113 11.7261C9.25922 11.4152 9.43167 10.9951 9.43083 10.5576C9.43083 9.63463 8.70266 8.93896 7.79842 8.93896C6.89418 8.93896 6.16602 9.6348 6.16602 10.5576C6.16536 10.9951 6.3378 11.4152 6.64588 11.7261C6.79484 11.8748 6.89255 12.0673 6.92474 12.2754H6.92476Z" fill="#CEB766"/>
</svg>
