<svg width="24" height="24" viewBox="0 0 24 24" fill="none" xmlns="http://www.w3.org/2000/svg">
<path d="M5.92476 12.2754V12.276H7.67211V12.2754C7.70413 12.0673 7.80185 11.8747 7.95113 11.7261C8.25922 11.4152 8.43167 10.9951 8.43083 10.5576C8.43083 9.63463 7.70266 8.93896 6.79842 8.93896C5.89418 8.93896 5.16602 9.6348 5.16602 10.5576C5.16536 10.9951 5.3378 11.4152 5.64588 11.7261C5.79484 11.8748 5.89255 12.0673 5.92474 12.2754H5.92476Z" fill="#CEB766"/>
<path d="M9.49987 2C8.7998 2 8.14984 2.25 7.69994 2.70007C7.24987 3.15014 6.99987 3.80011 6.99987 4.5C6.99987 5.20007 7.44994 5.70007 7.69994 6.29993C7.775 6.4499 7.775 6.69989 7.775 7H2V22H7.775C7.775 21.7001 7.75003 21.4501 7.69994 21.2999C7.44994 20.6999 6.99987 20.1999 6.99987 19.5C6.99987 18.7999 7.24987 18.15 7.69994 17.7001C8.15001 17.25 8.79998 17 9.49987 17C10.1999 17 10.8499 17.25 11.2998 17.7001C11.7499 18.1501 11.9999 18.8001 11.9999 19.5C11.9999 20.2001 11.5498 20.7001 11.2998 21.2999C11.2247 21.4499 11.2247 21.6999 11.2247 22H16.9997V16.225C17.2997 16.225 17.5497 16.25 17.6998 16.3001C18.2998 16.5501 18.7998 17.0001 19.4997 17.0001C20.1998 17.0001 20.8498 16.7501 21.2997 16.3001C21.7497 15.85 21.9997 15.2 21.9997 14.5001C21.9997 13.8001 21.7497 13.1501 21.2997 12.7002C20.8496 12.2501 20.1996 12.0001 19.4997 12.0001C18.7997 12.0001 18.2997 12.4502 17.6998 12.7002C17.5498 12.7753 17.2998 12.7753 16.9997 12.7753V7.00026H11.2247C11.2247 6.70031 11.2497 6.45033 11.2998 6.30019C11.5498 5.70015 11.9999 5.20015 11.9999 4.50026C11.9999 3.80019 11.7499 3.15022 11.2998 2.70033C10.8497 2.25026 10.1998 2.00026 9.49987 2.00026V2Z" fill="#CEB766"/>
</svg>
