<svg width="37" height="37" viewBox="0 0 37 37" fill="none" xmlns="http://www.w3.org/2000/svg">
<path fill-rule="evenodd" clip-rule="evenodd" d="M18.5 23.4332C14.818 23.4332 11.9224 20.8472 11.9224 15.2112C11.9224 11.5208 14.5191 8.6337 18.5 8.6337C22.4698 8.6337 25.0775 11.7935 25.0775 15.5401C25.0775 20.9331 22.1474 23.4332 18.5 23.4332ZM15.2112 15.2112C15.2112 18.9428 16.5567 20.1444 18.5 20.1444C20.4366 20.1444 21.7887 18.9907 21.7887 15.5401C21.7887 13.4853 20.499 11.9225 18.5 11.9225C16.4178 11.9225 15.2112 13.264 15.2112 15.2112Z" fill="#CEB766"/>
<path fill-rule="evenodd" clip-rule="evenodd" d="M18.5 36.5882C8.51012 36.5882 0.411743 28.4899 0.411743 18.5C0.411743 8.51015 8.51012 0.411774 18.5 0.411774C28.4898 0.411774 36.5882 8.51015 36.5882 18.5C36.5882 28.4899 28.4898 36.5882 18.5 36.5882ZM30.6676 26.9269C32.327 24.5354 33.2994 21.6313 33.2994 18.5C33.2994 10.3265 26.6735 3.70054 18.5 3.70054C10.3265 3.70054 3.70051 10.3265 3.70051 18.5C3.70051 21.6313 4.67297 24.5354 6.33236 26.9269C8.18303 24.4824 12.5319 23.4332 18.5 23.4332C24.4681 23.4332 28.8169 24.4824 30.6676 26.9269ZM28.3082 29.5828C27.8269 27.8522 24.3694 26.7219 18.5 26.7219C12.6305 26.7219 9.17303 27.8522 8.69175 29.5828C11.303 31.8955 14.7375 33.2995 18.5 33.2995C22.2624 33.2995 25.697 31.8955 28.3082 29.5828Z" fill="#CEB766"/>
</svg>
